<?xml version="1.0" encoding="utf-8"?>
<!-- Generator: Adobe Illustrator 24.2.0, SVG Export Plug-In . SVG Version: 6.00 Build 0)  -->
<svg version="1.1" id="Layer_1" xmlns="http://www.w3.org/2000/svg" xmlns:xlink="http://www.w3.org/1999/xlink" x="0px" y="0px"
	 viewBox="0 0 383.9 97.3" style="enable-background:new 0 0 383.9 97.3;" xml:space="preserve">
<style type="text/css">
	.st0{fill:#F8A68C;}
</style>
<g>
	<path class="st0" d="M121.6,81.9V71.5l-4.5,6.8H117l-4.4-6.7v10.3h-3.4V66h3.8l4.2,6.7l4.2-6.7h3.8v15.8H121.6z"/>
	<path class="st0" d="M143.3,81.9l-1.4-3.6h-6.7l-1.4,3.6h-3.6l6.8-15.9h3.2l6.8,15.9H143.3z M138.5,70.1l-2.1,5.1h4.2L138.5,70.1z"
		/>
	<path class="st0" d="M162.5,81.9l-3.4-5.1h-2.7v5.1h-3.5V66h7.2c3.7,0,6,2,6,5.2v0c0,2.6-1.4,4.2-3.4,4.9l3.9,5.7H162.5z
		 M162.6,71.4c0-1.5-1-2.3-2.7-2.3h-3.5v4.5h3.5C161.6,73.7,162.6,72.8,162.6,71.4L162.6,71.4z"/>
	<path class="st0" d="M184,81.9l-4.9-6.7l-1.8,1.9v4.8h-3.5V66h3.5V73l6.4-6.9h4.2l-6.4,6.7l6.7,9.1H184z"/>
	<path class="st0" d="M194.8,81.9V66h11.9v3.1h-8.5v3.2h7.5v3.1h-7.5v3.3h8.6v3.1H194.8z"/>
	<path class="st0" d="M221.7,69.3v12.6h-3.5V69.3h-4.8V66h13.1v3.2H221.7z"/>
	<path class="st0" d="M233.8,81.9V66h3.5v15.8H233.8z"/>
	<path class="st0" d="M256.9,81.9l-7.7-10.1v10.1h-3.4V66h3.2l7.4,9.8V66h3.4v15.8H256.9z"/>
	<path class="st0" d="M275.8,82.1c-4.9,0-8.3-3.5-8.3-8.1v0c0-4.5,3.5-8.2,8.3-8.2c2.9,0,4.6,0.8,6.2,2.2l-2.2,2.6
		c-1.2-1-2.3-1.6-4.1-1.6c-2.5,0-4.5,2.2-4.5,4.9v0c0,2.9,2,5,4.8,5c1.3,0,2.4-0.3,3.3-1v-2.3h-3.5v-3h6.9v6.9
		C280.9,81,278.7,82.1,275.8,82.1z"/>
</g>
<g>
	<g>
		<path class="st0" d="M48.5,53.2c4.6-0.6,6.8-4.4,8.4-6.9c1.2,1,2.5,1.9,3.7,2.9c-2.9,5.8-7.4,9.3-13.9,10.2
			c-9.1,1.3-17.5-4.4-18.9-13.1c-1.4-8.5,5.1-16.7,14.5-18.1c6.6-0.9,12.4,1.3,16.4,6.1c-1,1.2-1.9,2.5-2.9,3.7c-2.2-2-5.3-5-10-4.4
			c-4.8,0.7-8.1,5.5-7.2,11C39.3,50.1,43.8,53.9,48.5,53.2z"/>
		<path class="st0" d="M65.9,55.9c-1.2-9.8-2.4-19.6-3.6-29.4c8.3-1,16.6-2,25-2.8c0.2,1.8,0.4,3.6,0.5,5.4c-4.9,0.5-9.8,1-14.8,1.6
			c0.2,1.8,0.4,3.6,0.6,5.4c3.4-0.4,6.8-0.8,10.2-1.1c0.2,1.8,0.4,3.6,0.6,5.4c-3.4,0.4-6.7,0.7-10.1,1.1c0.3,2.6,0.6,5.3,0.9,7.9
			c4.8-0.6,9.7-1.1,14.5-1.6c0.2,1.8,0.4,3.6,0.5,5.4C82.1,54,74,54.9,65.9,55.9z"/>
		<path class="st0" d="M116.6,50.8c-5.3-5.4-10.7-10.8-16.1-16.1c0.5,5.8,1,11.5,1.5,17.3c-1.8,0.2-3.6,0.3-5.4,0.5
			c-0.9-9.8-1.8-19.6-2.8-29.4c2.8-0.3,5.5-0.5,8.3-0.7c5.5,5.3,10.9,10.7,16.2,16.1c-0.4-5.8-0.8-11.5-1.3-17.3
			c1.9-0.1,3.7-0.3,5.6-0.4c0.7,9.8,1.3,19.7,2,29.5C122,50.4,119.3,50.6,116.6,50.8z"/>
		<path class="st0" d="M146.7,24.8c0.4,8.1,0.7,16.1,1.1,24.2c-3.3,0.2-6.6,0.3-9.9,0.5c-0.4-8-0.9-16.1-1.3-24.1
			c-3.3,0.2-6.5,0.4-9.8,0.6c-0.1-1.8-0.2-3.6-0.3-5.4c9.9-0.6,19.9-1.1,29.8-1.5c0.1,1.8,0.1,3.6,0.2,5.4
			C153.2,24.5,150,24.7,146.7,24.8z"/>
		<path class="st0" d="M194.5,47.9c-4.4,0-8.7,0-13.1,0.1c-3.5-3.9-7.1-7.8-10.7-11.6c0.1,3.9,0.2,7.9,0.3,11.8
			c-3.3,0.1-6.6,0.2-9.9,0.3c-0.3-9.9-0.6-19.7-1-29.6c0,0,15.5-0.4,17.3-0.4c7.3-0.1,13.2,4.3,13.2,9.7c0,3.6-2.5,6.7-6.2,8.5
			C187.8,40.4,191.2,44.1,194.5,47.9z M174.6,23.9c-1.4,0-2.8,0.1-4.2,0.1c0.1,3,0.1,5.9,0.2,8.9c1.4,0,2.8-0.1,4.1-0.1
			c3.2-0.1,5.8-2.1,5.8-4.5C180.6,25.8,177.8,23.8,174.6,23.9z"/>
		<path class="st0" d="M220.4,48.2c-0.7-1.6-1.4-3.2-2.1-4.8c-4.5-0.1-9.1-0.2-13.6-0.2c-0.7,1.6-1.5,3.1-2.2,4.7c-2,0-4,0-6,0
			c4.6-9.9,9.4-19.7,14.3-29.5c2.5,0,4.9,0.1,7.4,0.1c4.6,10,9,19.9,13.3,29.9C227.7,48.3,224,48.2,220.4,48.2z M211.7,28.7
			c-1.5,3-3,6-4.4,9.1c2.9,0,5.7,0.1,8.6,0.1C214.4,34.9,213.1,31.8,211.7,28.7z"/>
		<path class="st0" d="M235,48.6c0.4-9.9,0.7-19.7,1.1-29.6c3.4,0.1,6.8,0.3,10.2,0.4c-0.4,8.1-0.7,16.1-1.1,24.2
			c4.9,0.2,9.7,0.5,14.5,0.8c-0.1,1.8-0.2,3.6-0.3,5.4C251.3,49.3,243.1,48.9,235,48.6z"/>
		<path class="st0" d="M296.1,52.6c-0.6-1.6-1.2-3.3-1.7-4.9c-4.5-0.4-9.1-0.8-13.6-1.2c-0.9,1.5-1.7,3-2.6,4.5c-2-0.2-4-0.3-6-0.5
			c5.3-9.5,10.8-19,16.4-28.4c2.5,0.2,4.9,0.4,7.4,0.7c3.8,10.3,7.5,20.5,11.1,30.8C303.4,53.3,299.7,53,296.1,52.6z M288.8,32.6
			c-1.7,2.9-3.4,5.8-5.1,8.7c2.9,0.2,5.7,0.5,8.6,0.7C291.1,38.9,289.9,35.8,288.8,32.6z"/>
		<path class="st0" d="M321.5,55.3c-2.4-0.3-4.8-0.6-7.2-0.8c-3.5-10.3-7.1-20.6-10.9-30.9c3.7,0.4,7.5,0.8,11.2,1.2
			c2.4,6.7,4.7,13.5,7,20.2c3.8-6,7.6-12,11.5-18c2,0.3,4.1,0.5,6.1,0.8C333.2,36.9,327.3,46.1,321.5,55.3z"/>
		<path class="st0" d="M337.4,57.4c1.3-9.8,2.6-19.5,4-29.3c8.3,1.1,16.6,2.3,24.9,3.6c-0.3,1.8-0.6,3.6-0.8,5.3
			c-4.9-0.8-9.8-1.5-14.7-2.2c-0.3,1.8-0.5,3.6-0.8,5.4c3.4,0.5,6.7,1,10.1,1.5c-0.3,1.8-0.5,3.6-0.8,5.3c-3.4-0.5-6.7-1-10.1-1.5
			c-0.4,2.6-0.8,5.2-1.1,7.9c4.8,0.7,9.6,1.4,14.4,2.2c-0.3,1.8-0.6,3.6-0.8,5.3C353.6,59.6,345.5,58.5,337.4,57.4z"/>
	</g>
</g>
</svg>
