<svg xmlns="http://www.w3.org/2000/svg" id="Layer_1" x="0" y="0" version="1.1" viewBox="0 0 383.9 97.3" xml:space="preserve"><style>.st0{fill:#f8a68c}</style><path d="M121.6 81.9V71.5l-4.5 6.8h-.1l-4.4-6.7v10.3h-3.4V66h3.8l4.2 6.7 4.2-6.7h3.8v15.8h-3.6zM143.3 81.9l-1.4-3.6h-6.7l-1.4 3.6h-3.6L137 66h3.2l6.8 15.9h-3.7zm-4.8-11.8l-2.1 5.1h4.2l-2.1-5.1zM162.5 81.9l-3.4-5.1h-2.7v5.1h-3.5V66h7.2c3.7 0 6 2 6 5.2 0 2.6-1.4 4.2-3.4 4.9l3.9 5.7h-4.1zm.1-10.5c0-1.5-1-2.3-2.7-2.3h-3.5v4.5h3.5c1.7.1 2.7-.8 2.7-2.2zM184 81.9l-4.9-6.7-1.8 1.9v4.8h-3.5V66h3.5v7l6.4-6.9h4.2l-6.4 6.7 6.7 9.1H184zM194.8 81.9V66h11.9v3.1h-8.5v3.2h7.5v3.1h-7.5v3.3h8.6v3.1h-12zM221.7 69.3v12.6h-3.5V69.3h-4.8V66h13.1v3.2h-4.8zM233.8 81.9V66h3.5v15.8h-3.5zM256.9 81.9l-7.7-10.1v10.1h-3.4V66h3.2l7.4 9.8V66h3.4v15.8h-2.9zM275.8 82.1c-4.9 0-8.3-3.5-8.3-8.1 0-4.5 3.5-8.2 8.3-8.2 2.9 0 4.6.8 6.2 2.2l-2.2 2.6c-1.2-1-2.3-1.6-4.1-1.6-2.5 0-4.5 2.2-4.5 4.9 0 2.9 2 5 4.8 5 1.3 0 2.4-.3 3.3-1v-2.3h-3.5v-3h6.9v6.9c-1.8 1.5-4 2.6-6.9 2.6z" class="st0"/><g><path d="M48.5 53.2c4.6-.6 6.8-4.4 8.4-6.9 1.2 1 2.5 1.9 3.7 2.9-2.9 5.8-7.4 9.3-13.9 10.2-9.1 1.3-17.5-4.4-18.9-13.1-1.4-8.5 5.1-16.7 14.5-18.1 6.6-.9 12.4 1.3 16.4 6.1-1 1.2-1.9 2.5-2.9 3.7-2.2-2-5.3-5-10-4.4-4.8.7-8.1 5.5-7.2 11 .7 5.5 5.2 9.3 9.9 8.6zM65.9 55.9l-3.6-29.4c8.3-1 16.6-2 25-2.8.2 1.8.4 3.6.5 5.4-4.9.5-9.8 1-14.8 1.6l.6 5.4c3.4-.4 6.8-.8 10.2-1.1l.6 5.4c-3.4.4-6.7.7-10.1 1.1.3 2.6.6 5.3.9 7.9 4.8-.6 9.7-1.1 14.5-1.6.2 1.8.4 3.6.5 5.4-8.1.8-16.2 1.7-24.3 2.7zM116.6 50.8c-5.3-5.4-10.7-10.8-16.1-16.1.5 5.8 1 11.5 1.5 17.3-1.8.2-3.6.3-5.4.5-.9-9.8-1.8-19.6-2.8-29.4 2.8-.3 5.5-.5 8.3-.7 5.5 5.3 10.9 10.7 16.2 16.1-.4-5.8-.8-11.5-1.3-17.3 1.9-.1 3.7-.3 5.6-.4.7 9.8 1.3 19.7 2 29.5-2.6.1-5.3.3-8 .5zM146.7 24.8c.4 8.1.7 16.1 1.1 24.2-3.3.2-6.6.3-9.9.5-.4-8-.9-16.1-1.3-24.1-3.3.2-6.5.4-9.8.6l-.3-5.4c9.9-.6 19.9-1.1 29.8-1.5.1 1.8.1 3.6.2 5.4-3.3 0-6.5.2-9.8.3zM194.5 47.9c-4.4 0-8.7 0-13.1.1-3.5-3.9-7.1-7.8-10.7-11.6l.3 11.8-9.9.3c-.3-9.9-.6-19.7-1-29.6 0 0 15.5-.4 17.3-.4 7.3-.1 13.2 4.3 13.2 9.7 0 3.6-2.5 6.7-6.2 8.5 3.4 3.7 6.8 7.4 10.1 11.2zm-19.9-24c-1.4 0-2.8.1-4.2.1.1 3 .1 5.9.2 8.9 1.4 0 2.8-.1 4.1-.1 3.2-.1 5.8-2.1 5.8-4.5.1-2.5-2.7-4.5-5.9-4.4zM220.4 48.2l-2.1-4.8c-4.5-.1-9.1-.2-13.6-.2-.7 1.6-1.5 3.1-2.2 4.7h-6c4.6-9.9 9.4-19.7 14.3-29.5 2.5 0 4.9.1 7.4.1 4.6 10 9 19.9 13.3 29.9-3.8-.1-7.5-.2-11.1-.2zm-8.7-19.5c-1.5 3-3 6-4.4 9.1 2.9 0 5.7.1 8.6.1-1.5-3-2.8-6.1-4.2-9.2zM235 48.6c.4-9.9.7-19.7 1.1-29.6 3.4.1 6.8.3 10.2.4-.4 8.1-.7 16.1-1.1 24.2 4.9.2 9.7.5 14.5.8l-.3 5.4c-8.1-.5-16.3-.9-24.4-1.2zM296.1 52.6c-.6-1.6-1.2-3.3-1.7-4.9-4.5-.4-9.1-.8-13.6-1.2-.9 1.5-1.7 3-2.6 4.5-2-.2-4-.3-6-.5 5.3-9.5 10.8-19 16.4-28.4 2.5.2 4.9.4 7.4.7 3.8 10.3 7.5 20.5 11.1 30.8-3.7-.3-7.4-.6-11-1zm-7.3-20l-5.1 8.7c2.9.2 5.7.5 8.6.7-1.2-3.1-2.4-6.2-3.5-9.4zM321.5 55.3c-2.4-.3-4.8-.6-7.2-.8-3.5-10.3-7.1-20.6-10.9-30.9 3.7.4 7.5.8 11.2 1.2 2.4 6.7 4.7 13.5 7 20.2 3.8-6 7.6-12 11.5-18 2 .3 4.1.5 6.1.8-6 9.1-11.9 18.3-17.7 27.5zM337.4 57.4c1.3-9.8 2.6-19.5 4-29.3 8.3 1.1 16.6 2.3 24.9 3.6-.3 1.8-.6 3.6-.8 5.3-4.9-.8-9.8-1.5-14.7-2.2-.3 1.8-.5 3.6-.8 5.4 3.4.5 6.7 1 10.1 1.5-.3 1.8-.5 3.6-.8 5.3-3.4-.5-6.7-1-10.1-1.5-.4 2.6-.8 5.2-1.1 7.9 4.8.7 9.6 1.4 14.4 2.2-.3 1.8-.6 3.6-.8 5.3-8.1-1.3-16.2-2.4-24.3-3.5z" class="st0"/></g></svg>