<?xml version="1.0" encoding="utf-8"?>
<!-- Generator: Adobe Illustrator 24.2.0, SVG Export Plug-In . SVG Version: 6.00 Build 0)  -->
<svg version="1.1" id="Layer_1" xmlns="http://www.w3.org/2000/svg" xmlns:xlink="http://www.w3.org/1999/xlink" x="0px" y="0px"
	 viewBox="0 0 383.9 254.8" style="enable-background:new 0 0 383.9 254.8;" xml:space="preserve">
<style type="text/css">
	.st0{fill:#FAF6DE;}
	.st1{fill:#F8A68C;}
	.st2{fill:#055757;}
</style>
<g>
	<path class="st0" d="M221.4,31.9c-0.7,0.4-1.4,0.8-2,1.1c5.1,0,11-0.4,17.8-1.5c-2.5-1.9-5.2-3.6-8-5.2
		C227.2,28.2,224.6,30,221.4,31.9z"/>
	<path class="st0" d="M195,31.1c5.9-1.9,12.6-4.9,20.2-9.2c0.6-0.3,1.2-0.7,1.9-1.1c-5.1-1.8-10.4-3.1-15.8-3.7
		C201.7,20.8,199.7,25.4,195,31.1z"/>
	<path class="st0" d="M171.9,29.9c-0.3,2.3-0.7,4.4-1.1,6.5c3.3-3.1,6.8-6.8,10.5-11.2c2.1-2.6,4.3-5.7,5.4-8.5
		c-5,0.3-9.9,1.1-14.6,2.4C172.6,21.9,172.6,25.5,171.9,29.9z"/>
	<path class="st0" d="M139.5,40.9l11.6,14.9c1.1-1.1,2.4-2.1,3.7-3.1c0.6-6.7,0.2-15.1-1.9-25.5c-5.4,3.2-10.4,7.1-14.8,11.6
		C138.6,39.4,139.1,40.1,139.5,40.9z"/>
	<path class="st0" d="M225.6,142.3c3.9,1.6,8,3.5,12.4,5.9c1,0.5,1.8,1,2.7,1.5c3.1-2.7,6.1-5.6,8.7-8.7c-0.5,0-1-0.1-1.5-0.1
		C239.1,140.7,231.7,141.3,225.6,142.3z"/>
	<path class="st0" d="M201.4,148.7c2,2.2,4,4.6,6.1,7.3c2.5,3.2,4.3,6.1,5.3,8.7c5.2-1.5,10.2-3.5,14.8-6.1
		C217.2,153.2,208.5,150.2,201.4,148.7z"/>
	<path class="st0" d="M179.7,144.1c2.2,6.2,4,13.9,5.1,23.4c2.3,0.2,4.6,0.3,6.9,0.3c1,0,2,0,3-0.1c-0.4-0.9-0.8-1.7-1.2-2.5
		C188.9,156.1,184.2,149.2,179.7,144.1z"/>
	<path class="st0" d="M151.9,156.4c4.3,2.7,9,5,13.8,6.7c-0.2-12.3-2.2-21.1-4.9-27.3C158.5,143.6,154.9,151,151.9,156.4z"/>
	<path class="st0" d="M157.3,110.1c-10.4-16.8,0.4-26.2,3.9-28.7c1.1-0.8,2.4-1.1,3.7-0.8c1,0.2,2,0.7,2.7,1.4l49.5,29.9
		c4.4-4.3,12.9-6.2,19-7l-53.9-18.2c-3.4-1.1-5.8-4.1-6.3-7.5l-8-18.9l-11.6-5.1c-14.2,11-17.1,28.5-14.5,37c1,3.5,3,6.8,5.7,9.6
		c3.4,3.5,7.6,11.3-2,23.8c-3.5,4.6-8.9,7.9-15.9,9.7c5.3,7.7,12,14.3,19.8,19.5C155.8,143.1,164.9,122.4,157.3,110.1z M163.3,63.8
		c1.3,0.9,2.3,2.3,2.6,3.9c0.3,1.6,0,3.2-0.9,4.6c-1.2,1.7-3.1,2.7-5.1,2.7c-1.2,0-2.3-0.3-3.4-1c-1.3-0.9-2.3-2.3-2.6-3.9
		c-0.3-1.6,0-3.2,0.9-4.6c0.9-1.3,2.3-2.3,3.9-2.6C160.3,62.6,161.9,62.9,163.3,63.8z"/>
	<g>
		<path class="st1" d="M214,35.9c-2.4,1.2-4.7,2.2-6.9,3.2c8.2,1.9,19.7,2.3,35.6-0.7c0.6-0.1,1.2-0.2,1.9-0.4
			c-1.4-1.4-2.8-2.7-4.3-3.9c-7.9,1.4-14.7,2-20.6,2C217.6,36,215.7,36,214,35.9z"/>
		<path class="st1" d="M191.4,35.4c-2.1,2.3-4.1,4.4-6.1,6.4c8.5-0.7,19.8-3.9,34.6-12.4c2.2-1.3,4.6-2.8,6.4-4.5
			c-1.9-1-3.9-1.9-5.9-2.7c-1.1,0.8-2.4,1.6-3.8,2.4C206.9,30,198.5,33.4,191.4,35.4z"/>
		<path class="st1" d="M183.6,27.1c-4.9,5.8-9.5,10.5-13.8,14.3c-0.9,4-2,7.6-3.1,10.8c7.2-3.9,15.9-10.7,25.7-22.4
			c3.3-4,6.8-9.3,5.7-12.9c-2.1-0.2-4.2-0.3-6.3-0.3c-0.6,0-1.2,0-1.9,0C189.1,19.5,187,23,183.6,27.1z"/>
		<path class="st1" d="M157.8,52.7l4.7,2.1c2.7-6.4,5-14.7,6.5-25.3c0.4-3.1,0.7-6.7,0.2-9.6c-4.7,1.5-9.3,3.4-13.5,5.7
			C157.9,36.6,158.4,45.5,157.8,52.7z"/>
		<path class="st1" d="M138.5,80.1c0.9-5.8,3.2-12.2,7.3-18.1c-1.6-4.8-3.8-10.2-6.8-16.1c-0.8-1.7-1.8-3.4-2.9-5
			c-3.3,3.6-6.3,7.5-8.9,11.7c0.8,1.2,1.6,2.6,2.4,4.2C134,65.8,136.9,73.5,138.5,80.1z"/>
		<path class="st1" d="M130.5,87.8c-0.1-4.4-1.1-26-5.6-31.2c-3.8,7.2-6.5,15.1-7.9,23.5c1.7,0.7,3.5,1.6,5.5,2.8
			C125.4,84.5,128.1,86.2,130.5,87.8z"/>
		<path class="st1" d="M213,138.1c2.3,0.6,4.8,1.3,7.4,2.2c7.2-1.7,16.3-2.7,27.7-2.3c1.3,0,2.5,0.1,3.6,0.2
			c1.1-1.4,2.2-2.9,3.2-4.5c-2.1-0.4-4.3-0.6-6.4-0.6C232.1,132.6,220.8,135,213,138.1z"/>
		<path class="st1" d="M192.4,139.9c1.8,1.6,3.6,3.3,5.5,5.2c8.3,1.2,18.8,4.4,31.9,11.4c0.3,0.2,0.6,0.3,0.9,0.5
			c2.6-1.6,5.2-3.3,7.6-5.2c-0.6-0.3-1.1-0.6-1.6-0.9C215.3,139.4,201.1,138.3,192.4,139.9z"/>
		<path class="st1" d="M173.6,131.5c0.9,1.4,1.9,3,2.7,4.7c6.2,5.7,13,14.4,19.8,27.6c0.6,1.3,1.2,2.5,1.7,3.6
			c4.1-0.3,8.2-1,12.1-1.9c-1.1-2.6-2.9-5.4-4.7-7.7C192.7,141.9,181.9,134.7,173.6,131.5z"/>
		<path class="st1" d="M163,124.5c-0.2,2.2-0.5,4.5-1,6.8c3.6,6.8,6.7,17.2,6.7,32.9c4.2,1.4,8.6,2.3,13.1,2.9
			C178.6,140.2,169.3,129.1,163,124.5z"/>
		<path class="st1" d="M118.3,98.8c13.5,7,22.3,14,28,20.4c2.8-5.3,2.6-9.3,1.3-12.2c-5.1-6.5-13.3-13.9-26.5-21.5
			c-1.4-0.8-2.9-1.6-4.4-2.3c-0.3,2.9-0.5,5.9-0.5,8.9c0,1.9,0.1,3.8,0.2,5.7C117,98.1,117.6,98.4,118.3,98.8z"/>
		<path class="st1" d="M129.1,132.4c1.9-2.4,9.5-13.2,2.3-22.3c-4-2.9-8.8-5.8-14.5-8.7c-0.1,0-0.2-0.1-0.3-0.1
			c1.4,11.5,5.3,22.1,11.2,31.4C128.3,132.6,128.7,132.5,129.1,132.4z"/>
		<path class="st1" d="M182.2,117.4c26.3,5.4,31.3,2.1,32.3-1.3c0.2-0.7,0.5-1.3,0.8-1.9l-32.4-19.6L182.2,117.4z"/>
		<path class="st1" d="M191.5,81.4c7.8,1.9,15.6,3.9,23.3,5.8l23.8,4.4l-66.4-29.3L186,79.9C187.8,80.5,189.7,80.9,191.5,81.4z"/>
		<path class="st1" d="M157,68.7c0,1.6,1.3,2.9,2.9,2.9c1.6,0,2.9-1.3,2.9-2.9s-1.3-2.9-2.9-2.9C158.3,65.8,157,67.1,157,68.7z"/>
		<g>
			<path class="st1" d="M105.9,241.7v-12l-5.2,7.9h-0.1l-5.1-7.8v12h-4v-18.4h4.4l4.8,7.8l4.8-7.8h4.4v18.4H105.9z"/>
			<path class="st1" d="M131.2,241.7l-1.7-4.1h-7.8l-1.7,4.1h-4.1l7.9-18.6h3.7l7.9,18.6H131.2z M125.6,228l-2.4,6h4.9L125.6,228z"
				/>
			<path class="st1" d="M153.6,241.7l-3.9-5.9h-3.2v5.9h-4.1v-18.4h8.4c4.3,0,7,2.3,7,6.1v0.1c0,3-1.6,4.8-3.9,5.7l4.5,6.6H153.6z
				 M153.7,229.5c0-1.7-1.2-2.6-3.2-2.6h-4v5.3h4.1C152.5,232.2,153.7,231.2,153.7,229.5L153.7,229.5z"/>
			<path class="st1" d="M178.6,241.7l-5.7-7.8l-2.1,2.2v5.6h-4.1v-18.4h4.1v8.1l7.5-8.1h4.9l-7.5,7.8l7.8,10.6H178.6z"/>
			<path class="st1" d="M191.2,241.7v-18.4h13.9v3.6h-9.9v3.7h8.7v3.6h-8.7v3.9h10v3.6H191.2z"/>
			<path class="st1" d="M222.4,227v14.7h-4.1V227h-5.6v-3.7h15.3v3.7H222.4z"/>
			<path class="st1" d="M236.6,241.7v-18.4h4.1v18.4H236.6z"/>
			<path class="st1" d="M263.5,241.7l-8.9-11.7v11.7h-4v-18.4h3.7l8.6,11.4v-11.4h4v18.4H263.5z"/>
			<path class="st1" d="M285.5,242c-5.7,0-9.7-4-9.7-9.5v-0.1c0-5.2,4.1-9.5,9.7-9.5c3.3,0,5.3,0.9,7.2,2.5l-2.6,3.1
				c-1.4-1.2-2.7-1.9-4.8-1.9c-2.9,0-5.3,2.6-5.3,5.7v0.1c0,3.4,2.3,5.8,5.6,5.8c1.5,0,2.8-0.4,3.8-1.1v-2.6h-4.1v-3.5h8v8
				C291.4,240.7,288.8,242,285.5,242z"/>
		</g>
	</g>
	<g>
		<path class="st2" d="M43.1,209.3c4.7,0,7.4-3.5,9.3-5.8l3.3,3.4c-3.7,5.5-8.6,8.4-15.2,8.4c-9.3,0-16.9-7.1-16.9-16.1
			c0-8.8,7.6-16,16.9-16c6.6,0,12,3,15.2,8.4l-3.3,3.4c-1.9-2.3-4.6-5.8-9.3-5.8c-4.8,0-8.7,4.4-8.7,10.1
			C34.4,204.9,38.3,209.3,43.1,209.3z"/>
		<path class="st2" d="M60.1,214.3v-30.2h24.8v5.5H70.2v5.5h10.2v5.5H70.2v8.1h14.7v5.5H60.1z"/>
		<path class="st2" d="M111.9,214.3L97,196.6v17.7h-5.5v-30.2h8.2l14.8,17.7v-17.7h5.5v30.2H111.9z"/>
		<path class="st2" d="M143.6,189.7v24.7h-10.1v-24.7h-9.7v-5.5h29.5v5.5H143.6z"/>
		<path class="st2" d="M191,214.3h-13.3l-10.6-12.1v12.1h-10.1v-30.2c0,0,15.3,0,17.1,0c7.2,0,13,4.5,13,10c0,3.7-2.6,6.9-6.3,8.6
			L191,214.3z M171.3,189.7h-4.1v9.1h4.1c3.2,0,5.9-2.1,5.9-4.5C177.2,191.7,174.5,189.7,171.3,189.7z"/>
		<path class="st2" d="M217.3,214.3l-2.2-4.8h-13.8l-2.2,4.8h-6.1l14.1-30.2h7.3l14.1,30.2H217.3z M208.2,194.7l-4.3,9.3h8.6
			L208.2,194.7z"/>
		<path class="st2" d="M232.2,214.3v-30.2h10.1v24.7H257v5.5H232.2z"/>
		<path class="st2" d="M294.3,214.3l-2.2-4.8h-13.8l-2.2,4.8h-6.1l14.1-30.2h7.3l14.1,30.2H294.3z M285.2,194.7l-4.3,9.3h8.6
			L285.2,194.7z"/>
		<path class="st2" d="M320.3,214.3h-7.4l-14.1-30.2h11.1l9.2,19.7l9.2-19.7h6.1L320.3,214.3z"/>
		<path class="st2" d="M336.5,214.3v-30.2h24.8v5.5h-14.7v5.5h10.2v5.5h-10.2v8.1h14.7v5.5H336.5z"/>
	</g>
	<g>
		<path class="st2" d="M154.9,65.5c-0.9,1.3-1.2,3-0.9,4.6c0.3,1.6,1.2,3,2.6,3.9c1,0.7,2.2,1,3.4,1c2,0,3.9-0.9,5.1-2.7
			c0.9-1.3,1.2-3,0.9-4.6c-0.3-1.6-1.2-3-2.6-3.9c-1.3-0.9-3-1.2-4.6-0.9C157.1,63.2,155.8,64.1,154.9,65.5z M159.9,65.8
			c1.6,0,2.9,1.3,2.9,2.9s-1.3,2.9-2.9,2.9c-1.6,0-2.9-1.3-2.9-2.9S158.3,65.8,159.9,65.8z"/>
		<path class="st2" d="M232,130.7C232,130.7,232,130.7,232,130.7c-10.7,1.1-18.4,3.5-24.1,6.4c-6.4-1.1-11.6-1-15.7-0.3
			c-15.6-6.6-26.8-23.8-26.8-44.6c0-2.6,0.2-5.2,0.5-7.7c-0.1-0.1-0.2-0.3-0.2-0.4c0.2,0.2,0.3,0.5,0.4,0.8l13.2,33.9
			c0.1,0.6,0.6,1,1.1,1.2c0.1,0,4.5,1.5,14.5,2.2c14.3,1.1,20.9-0.3,22.4-5.4c2.2-7.6,19.6-9.5,26.2-9.6c0.7,0,1.3-0.5,1.4-1.3
			c0.1-0.7-0.3-1.4-1-1.6l-7-2.4l-11.3-9.9l-1.4-0.4l24.2,4c0.7,0.2,1.5-0.2,1.8-0.9c0.3-0.7-0.1-1.5-0.8-1.8l-83.8-36.9l10.1,4.4
			c7.5-9.7,18.4-15.7,30.5-15.7c22,0,34.7,16.6,43.6,27.2l15.6-15.9c-10.6-17.5-25.9-29.7-44.6-35.5c-9-3.7-18.8-5.7-29-5.7
			c-33.7,0-62.3,21.7-72.8,51.8c-3,7.9-4.6,16.4-4.6,25.2c0,9.2,1.7,18,4.8,26.2c10.7,29.7,39.2,51.1,72.6,51.1
			c9.3,0,18.2-1.7,26.5-4.7c19.3-5.4,34.8-17.7,47.1-36.2l-15.6-15.9C245.1,118,239.5,125.1,232,130.7z M248.5,133.1
			c1.5,0,3.1,0.2,4.7,0.4c-1.1,1.6-2.2,3.1-3.4,4.6c-0.6,0-1.2-0.1-1.8-0.1c-11.4-0.3-20.5,0.6-27.7,2.3c-2.6-0.9-5-1.6-7.4-2.2
			C220.8,135,232.1,132.6,248.5,133.1z M238,148.2c-4.4-2.4-8.6-4.3-12.4-5.9c6-1,13.3-1.6,21.9-1.4c-2.5,2.9-5.2,5.5-8.2,8
			C238.9,148.7,238.4,148.5,238,148.2z M236.6,150.8c0.1,0,0.1,0.1,0.2,0.1c-2.4,1.9-5,3.6-7.7,5.2c-12.7-6.7-23-9.9-31.2-11.1
			c-1.9-1.9-3.7-3.6-5.5-5.2C201.1,138.3,215.3,139.4,236.6,150.8z M212.2,163.4c-1-2.2-2.6-4.7-4.7-7.3c-2.1-2.7-4.1-5.1-6.1-7.3
			c6.8,1.4,14.9,4.2,24.6,9.1C221.7,160.1,217,162,212.2,163.4z M205.2,157.9c1.5,1.9,3,4.1,4.1,6.3c-3.9,1-7.9,1.6-12.1,1.9
			c-0.3-0.7-0.7-1.4-1.1-2.2c-6.8-13.2-13.6-21.9-19.8-27.6c-0.9-1.7-1.8-3.3-2.7-4.7C181.9,134.7,192.7,141.9,205.2,157.9z
			 M181.7,165.6c-4.5-0.6-8.8-1.6-13-3c-0.2-14.8-3.2-24.7-6.7-31.3c0.5-2.3,0.9-4.5,1-6.8C169.2,129,178.3,139.8,181.7,165.6z
			 M136.9,42.2c0.8,1.2,1.5,2.5,2.1,3.7c3,5.9,5.2,11.3,6.8,16.1c-4.1,5.9-6.4,12.3-7.3,18.1c-1.7-6.6-4.5-14.4-9-23.3
			c-0.5-1-1-1.9-1.5-2.7C130.6,49.9,133.6,45.9,136.9,42.2z M153.2,28.7c1.8,9.7,2.1,17.6,1.6,23.9c-1.3,1-2.5,2-3.7,3.1l-11.6-14.9
			c-0.2-0.3-0.4-0.6-0.5-0.9C143.3,35.7,148,31.9,153.2,28.7z M130.5,87.8c-2.4-1.6-5.1-3.3-8-4.9c-1.4-0.8-2.8-1.5-4.1-2.1
			c1.2-8.1,3.8-15.7,7.4-22.7C129.6,65,130.4,83.8,130.5,87.8z M117.6,92.1c0-2.8,0.2-5.5,0.5-8.3c1,0.5,2.1,1,3,1.6
			c13.2,7.6,21.4,15,26.5,21.5c1.3,2.9,1.6,6.9-1.3,12.2c-5.7-6.4-14.4-13.4-28-20.4c-0.2-0.1-0.3-0.1-0.4-0.2
			C117.7,96.4,117.6,94.3,117.6,92.1z M118.3,102.1c5.1,2.7,9.4,5.4,13.2,8c6.9,8.7,0.1,19.1-2.1,22
			C123.6,123.2,119.7,113,118.3,102.1z M165.7,161.5c-4.6-1.7-9-3.9-13.1-6.5c2.8-5.3,6-12.1,8.2-19.2
			C163.4,141.8,165.4,150.1,165.7,161.5z M214.5,116.1c-1,3.4-6,6.7-32.3,1.3l0.7-22.8l32.4,19.6
			C214.9,114.8,214.7,115.4,214.5,116.1z M238.7,91.6l-23.8-4.4c-7.8-2-15.5-3.9-23.3-5.8c-1.8-0.5-3.7-0.9-5.6-1.4l-13.6-17.7
			L238.7,91.6z M167.9,60.4l8,18.9c0.6,3.4,2.9,6.3,6.3,7.5l53.9,18.2c-6.1,0.8-14.6,2.6-19,7l-49.5-29.9c-0.7-0.7-1.6-1.2-2.7-1.4
			c-1.3-0.2-2.6,0.1-3.7,0.8c-3.5,2.5-14.3,12-3.9,28.7c7.3,11.8-0.8,31.5-7.2,43.4c-7.4-5-13.8-11.4-19-18.6
			c6.3-1.9,11.1-5,14.4-9.2c9.6-12.5,5.4-20.3,2-23.8c-2.7-2.8-4.7-6.1-5.7-9.6c-2.6-8.5,0.3-26,14.5-37L167.9,60.4z M162.5,54.7
			l-4.7-2.1c0.5-6.8,0.1-15.2-1.9-25.5c4.2-2.3,8.7-4.3,13.4-5.8c0.2,2.6,0,5.5-0.4,8.1C167.5,40,165.2,48.3,162.5,54.7z
			 M172.3,20.5c4.4-1.2,9-2,13.8-2.4c-1.2,2.4-2.9,4.9-4.7,7c-3.7,4.4-7.2,8.1-10.5,11.2c0.4-2.1,0.8-4.2,1.1-6.5
			C172.5,26.2,172.6,23.1,172.3,20.5z M185.3,41.7c2-1.9,4-4,6.1-6.4c7.1-1.9,15.5-5.3,25.3-10.9c0.8-0.5,1.5-0.9,2.3-1.4
			c2.1,0.8,4.2,1.8,6.2,2.8c-1.6,1.3-3.4,2.5-5.2,3.5C205.1,37.8,193.8,41,185.3,41.7z M215.3,21.8c-0.1,0-0.1,0.1-0.2,0.1
			c-7.6,4.3-14.3,7.3-20.2,9.2c4.1-5,6.1-9.1,6.3-12.6C206.1,19.2,210.8,20.3,215.3,21.8z M234.9,31.9c-5.9,0.8-11,1.2-15.6,1.2
			c0.7-0.4,1.4-0.7,2-1.1c2.7-1.5,4.8-3,6.6-4.5C230.3,28.8,232.7,30.3,234.9,31.9z M207,39c2.2-0.9,4.5-2,6.9-3.2
			c1.8,0.1,3.6,0.2,5.6,0.2c5.4,0,11.6-0.5,18.6-1.7c1.6,1.3,3.1,2.6,4.5,3.9c0,0,0,0-0.1,0C226.7,41.4,215.2,40.9,207,39z
			 M198.3,18.3c0,3.5-3,8-5.9,11.4c-9.8,11.7-18.4,18.5-25.7,22.4c1.1-3.2,2.2-6.8,3.1-10.8c4.3-3.7,8.9-8.4,13.8-14.3
			c2.8-3.4,4.7-6.4,5.8-9.1c0.8,0,1.6-0.1,2.4-0.1C193.9,17.9,196.1,18.1,198.3,18.3z M184.7,165.9c-1.1-8.8-2.8-16-4.9-21.9
			c4.4,5.2,9.1,12,13.8,21.1c0.2,0.3,0.3,0.7,0.5,1c-0.8,0-1.5,0-2.3,0C189.4,166.3,187,166.2,184.7,165.9z"/>
	</g>
</g>
</svg>
