<?xml version="1.0" encoding="utf-8"?>
<!-- Generator: Adobe Illustrator 24.2.0, SVG Export Plug-In . SVG Version: 6.00 Build 0)  -->
<svg version="1.1" id="Layer_1" xmlns="http://www.w3.org/2000/svg" xmlns:xlink="http://www.w3.org/1999/xlink" x="0px" y="0px"
	 viewBox="0 0 288 288" style="enable-background:new 0 0 288 288;" xml:space="preserve">
<style type="text/css">
	.st0{fill:#FAF6DE;}
	.st1{fill:#F8A68C;}
	.st2{fill:#055757;}
</style>
<g>
	<path class="st0" d="M175.5,83.8c-0.7,0.4-1.4,0.8-2,1.1c5.1,0,11-0.4,17.8-1.5c-2.5-1.9-5.2-3.6-8-5.2
		C181.4,80.1,178.8,81.9,175.5,83.8z"/>
	<path class="st0" d="M149.1,83c5.9-1.9,12.6-4.9,20.2-9.2c0.6-0.3,1.2-0.7,1.9-1.1c-5.1-1.8-10.4-3.1-15.8-3.7
		C155.9,72.7,153.8,77.3,149.1,83z"/>
	<path class="st0" d="M126.1,81.8c-0.3,2.3-0.7,4.4-1.1,6.5c3.3-3.1,6.8-6.8,10.5-11.2c2.1-2.6,4.3-5.7,5.4-8.5
		c-5,0.3-9.9,1.1-14.6,2.4C126.8,73.8,126.7,77.4,126.1,81.8z"/>
	<path class="st0" d="M93.7,92.8l11.6,14.9c1.1-1.1,2.4-2.1,3.7-3.1c0.6-6.7,0.2-15.1-1.9-25.5c-5.4,3.2-10.4,7.1-14.8,11.6
		C92.7,91.3,93.2,92,93.7,92.8z"/>
	<path class="st0" d="M179.7,194.2c3.9,1.6,8,3.5,12.4,5.9c1,0.5,1.8,1,2.7,1.5c3.1-2.7,6.1-5.6,8.7-8.7c-0.5,0-1-0.1-1.5-0.1
		C193.2,192.6,185.9,193.1,179.7,194.2z"/>
	<path class="st0" d="M155.5,200.6c2,2.2,4,4.6,6.1,7.3c2.5,3.2,4.3,6.1,5.3,8.7c5.2-1.5,10.2-3.5,14.8-6.1
		C171.4,205.1,162.7,202.1,155.5,200.6z"/>
	<path class="st0" d="M133.9,195.9c2.2,6.2,4,13.9,5.1,23.4c2.3,0.2,4.6,0.3,6.9,0.3c1,0,2,0,3-0.1c-0.4-0.9-0.8-1.7-1.2-2.5
		C143,208,138.3,201.1,133.9,195.9z"/>
	<path class="st0" d="M106.1,208.3c4.3,2.7,9,5,13.8,6.7c-0.2-12.3-2.2-21.1-4.9-27.3C112.6,195.5,109.1,202.9,106.1,208.3z"/>
	<path class="st0" d="M111.5,162c-10.4-16.8,0.4-26.2,3.9-28.7c1.1-0.8,2.4-1.1,3.7-0.8c1,0.2,2,0.7,2.7,1.4l49.5,29.9
		c4.4-4.3,12.9-6.2,19-7l-53.9-18.2c-3.4-1.1-5.8-4.1-6.3-7.5l-8-18.9l-11.6-5.1c-14.2,11-17.1,28.5-14.5,37c1,3.5,3,6.8,5.7,9.6
		c3.4,3.5,7.6,11.3-2,23.8c-3.5,4.6-8.9,7.9-15.9,9.7c5.3,7.7,12,14.3,19.8,19.5C110,195,119.1,174.3,111.5,162z M117.4,115.7
		c1.3,0.9,2.3,2.3,2.6,3.9c0.3,1.6,0,3.2-0.9,4.6c-1.2,1.7-3.1,2.7-5.1,2.7c-1.2,0-2.3-0.3-3.4-1c-1.3-0.9-2.3-2.3-2.6-3.9
		c-0.3-1.6,0-3.2,0.9-4.6c0.9-1.3,2.3-2.3,3.9-2.6C114.5,114.5,116.1,114.8,117.4,115.7z"/>
	<path class="st1" d="M168.1,87.7c-2.4,1.2-4.7,2.2-6.9,3.2c8.2,1.9,19.7,2.3,35.6-0.7c0.6-0.1,1.2-0.2,1.9-0.4
		c-1.4-1.4-2.8-2.7-4.3-3.9c-7.9,1.4-14.7,2-20.6,2C171.8,87.9,169.9,87.9,168.1,87.7z"/>
	<path class="st1" d="M145.5,87.2c-2.1,2.3-4.1,4.4-6.1,6.4c8.5-0.7,19.8-3.9,34.6-12.4c2.2-1.3,4.6-2.8,6.4-4.5
		c-1.9-1-3.9-1.9-5.9-2.7c-1.1,0.8-2.4,1.6-3.8,2.4C161,81.9,152.6,85.3,145.5,87.2z"/>
	<path class="st1" d="M137.8,79c-4.9,5.8-9.5,10.5-13.8,14.3c-0.9,4-2,7.6-3.1,10.8c7.2-3.9,15.9-10.7,25.7-22.4
		c3.3-4,6.8-9.3,5.7-12.9c-2.1-0.2-4.2-0.3-6.3-0.3c-0.6,0-1.2,0-1.9,0C143.2,71.4,141.1,74.9,137.8,79z"/>
	<path class="st1" d="M112,104.5l4.7,2.1c2.7-6.4,5-14.7,6.5-25.3c0.4-3.1,0.7-6.7,0.2-9.6c-4.7,1.5-9.3,3.4-13.5,5.7
		C112.1,88.5,112.6,97.4,112,104.5z"/>
	<path class="st1" d="M92.7,132c0.9-5.8,3.2-12.2,7.3-18.1c-1.6-4.8-3.8-10.2-6.8-16.1c-0.8-1.7-1.8-3.4-2.9-5
		c-3.3,3.6-6.3,7.5-8.9,11.7c0.8,1.2,1.6,2.6,2.4,4.2C88.2,117.7,91,125.4,92.7,132z"/>
	<path class="st1" d="M84.7,139.7c-0.1-4.4-1.1-26-5.6-31.2c-3.8,7.2-6.5,15.1-7.9,23.5c1.7,0.7,3.5,1.6,5.5,2.8
		C79.6,136.4,82.2,138.1,84.7,139.7z"/>
	<path class="st1" d="M167.1,190c2.3,0.6,4.8,1.3,7.4,2.2c7.2-1.7,16.3-2.7,27.7-2.3c1.3,0,2.5,0.1,3.6,0.2c1.1-1.4,2.2-2.9,3.2-4.5
		c-2.1-0.4-4.3-0.6-6.4-0.6C186.2,184.5,174.9,186.8,167.1,190z"/>
	<path class="st1" d="M146.6,191.8c1.8,1.6,3.6,3.3,5.5,5.2c8.3,1.2,18.8,4.4,31.9,11.4c0.3,0.2,0.6,0.3,0.9,0.5
		c2.6-1.6,5.2-3.3,7.6-5.2c-0.6-0.3-1.1-0.6-1.6-0.9C169.4,191.3,155.2,190.2,146.6,191.8z"/>
	<path class="st1" d="M127.8,183.4c0.9,1.4,1.9,3,2.7,4.7c6.2,5.7,13,14.4,19.8,27.6c0.6,1.3,1.2,2.5,1.7,3.6
		c4.1-0.3,8.2-1,12.1-1.9c-1.1-2.6-2.9-5.4-4.7-7.7C146.8,193.8,136,186.6,127.8,183.4z"/>
	<path class="st1" d="M117.2,176.4c-0.2,2.2-0.5,4.5-1,6.8c3.6,6.8,6.7,17.2,6.7,32.9c4.2,1.4,8.6,2.3,13.1,2.9
		C132.8,192.1,123.5,181,117.2,176.4z"/>
	<path class="st1" d="M72.5,150.7c13.5,7,22.3,14,28,20.4c2.8-5.3,2.6-9.3,1.3-12.2c-5.1-6.5-13.3-13.9-26.5-21.5
		c-1.4-0.8-2.9-1.6-4.4-2.3c-0.3,2.9-0.5,5.9-0.5,8.9c0,1.9,0.1,3.8,0.2,5.7C71.1,150,71.8,150.3,72.5,150.7z"/>
	<path class="st1" d="M83.2,184.3c1.9-2.4,9.5-13.2,2.3-22.3c-4-2.9-8.8-5.8-14.5-8.7c-0.1,0-0.2-0.1-0.3-0.1
		c1.4,11.5,5.3,22.1,11.2,31.4C82.4,184.5,82.8,184.4,83.2,184.3z"/>
	<path class="st1" d="M136.3,169.3c26.3,5.4,31.3,2.1,32.3-1.3c0.2-0.7,0.5-1.3,0.8-1.9L137,146.5L136.3,169.3z"/>
	<path class="st1" d="M145.7,133.3c7.8,1.9,15.6,3.9,23.3,5.8l23.8,4.4l-66.4-29.3l13.6,17.7C142,132.3,143.9,132.8,145.7,133.3z"/>
	<path class="st1" d="M111.1,120.6c0,1.6,1.3,2.9,2.9,2.9c1.6,0,2.9-1.3,2.9-2.9s-1.3-2.9-2.9-2.9
		C112.4,117.7,111.1,119,111.1,120.6z"/>
	<g>
		<path class="st2" d="M109,117.4c-0.9,1.3-1.2,3-0.9,4.6c0.3,1.6,1.2,3,2.6,3.9c1,0.7,2.2,1,3.4,1c2,0,3.9-0.9,5.1-2.7
			c0.9-1.3,1.2-3,0.9-4.6c-0.3-1.6-1.2-3-2.6-3.9c-1.3-0.9-3-1.2-4.6-0.9C111.3,115.1,109.9,116,109,117.4z M114,117.7
			c1.6,0,2.9,1.3,2.9,2.9s-1.3,2.9-2.9,2.9c-1.6,0-2.9-1.3-2.9-2.9S112.4,117.7,114,117.7z"/>
		<path class="st2" d="M186.2,182.6C186.2,182.6,186.2,182.6,186.2,182.6c-10.7,1.1-18.4,3.5-24.1,6.4c-6.4-1.1-11.6-1-15.7-0.3
			c-15.6-6.6-26.8-23.8-26.8-44.6c0-2.6,0.2-5.2,0.5-7.7c-0.1-0.1-0.2-0.3-0.2-0.4c0.2,0.2,0.3,0.5,0.4,0.8l13.2,33.9
			c0.1,0.6,0.6,1,1.1,1.2c0.1,0,4.5,1.5,14.5,2.2c14.3,1.1,20.9-0.3,22.4-5.4c2.2-7.6,19.6-9.5,26.2-9.6c0.7,0,1.3-0.5,1.4-1.3
			c0.1-0.7-0.3-1.4-1-1.6l-7-2.4l-11.3-9.9l-1.4-0.4l24.2,4c0.7,0.2,1.5-0.2,1.8-0.9c0.3-0.7-0.1-1.5-0.8-1.8L119.8,108l10.1,4.4
			c7.5-9.7,18.4-15.7,30.5-15.7c22,0,34.7,16.6,43.6,27.2l15.6-15.9c-10.6-17.5-25.9-29.7-44.6-35.5c-9-3.7-18.8-5.7-29-5.7
			c-33.7,0-62.3,21.7-72.8,51.8c-3,7.9-4.6,16.4-4.6,25.2c0,9.2,1.7,18,4.8,26.2c10.7,29.7,39.2,51.1,72.6,51.1
			c9.3,0,18.2-1.7,26.5-4.7c19.3-5.4,34.8-17.7,47.1-36.2l-15.6-15.9C199.3,169.8,193.6,177,186.2,182.6z M202.6,185
			c1.5,0,3.1,0.2,4.7,0.4c-1.1,1.6-2.2,3.1-3.4,4.6c-0.6,0-1.2-0.1-1.8-0.1c-11.4-0.3-20.5,0.6-27.7,2.3c-2.6-0.9-5-1.6-7.4-2.2
			C174.9,186.8,186.2,184.5,202.6,185z M192.1,200.1c-4.4-2.4-8.6-4.3-12.4-5.9c6-1,13.3-1.6,21.9-1.4c-2.5,2.9-5.2,5.5-8.2,8
			C193,200.6,192.6,200.4,192.1,200.1z M190.7,202.7c0.1,0,0.1,0.1,0.2,0.1c-2.4,1.9-5,3.6-7.7,5.2c-12.7-6.7-23-9.9-31.2-11.1
			c-1.9-1.9-3.7-3.6-5.5-5.2C155.2,190.2,169.4,191.3,190.7,202.7z M166.4,215.3c-1-2.2-2.6-4.7-4.7-7.3c-2.1-2.7-4.1-5.1-6.1-7.3
			c6.8,1.4,14.9,4.2,24.6,9.1C175.8,212,171.2,213.9,166.4,215.3z M159.3,209.8c1.5,1.9,3,4.1,4.1,6.3c-3.9,1-7.9,1.6-12.1,1.9
			c-0.3-0.7-0.7-1.4-1.1-2.2c-6.8-13.2-13.6-21.9-19.8-27.6c-0.9-1.7-1.8-3.3-2.7-4.7C136,186.6,146.8,193.8,159.3,209.8z
			 M135.8,217.5c-4.5-0.6-8.8-1.6-13-3c-0.2-14.8-3.2-24.7-6.7-31.3c0.5-2.3,0.9-4.5,1-6.8C123.3,180.9,132.4,191.7,135.8,217.5z
			 M91,94.1c0.8,1.2,1.5,2.5,2.1,3.7c3,5.9,5.2,11.3,6.8,16.1c-4.1,5.9-6.4,12.3-7.3,18.1c-1.7-6.6-4.5-14.4-9-23.3
			c-0.5-1-1-1.9-1.5-2.7C84.8,101.8,87.7,97.8,91,94.1z M107.4,80.6c1.8,9.7,2.1,17.6,1.6,23.9c-1.3,1-2.5,2-3.7,3.1L93.7,92.8
			c-0.2-0.3-0.4-0.6-0.5-0.9C97.4,87.6,102.2,83.8,107.4,80.6z M84.7,139.7c-2.4-1.6-5.1-3.3-8-4.9c-1.4-0.8-2.8-1.5-4.1-2.1
			c1.2-8.1,3.8-15.7,7.4-22.7C83.7,116.9,84.5,135.7,84.7,139.7z M71.7,144c0-2.8,0.2-5.5,0.5-8.3c1,0.5,2.1,1,3,1.6
			c13.2,7.6,21.4,15,26.5,21.5c1.3,2.9,1.6,6.9-1.3,12.2c-5.7-6.4-14.4-13.4-28-20.4c-0.2-0.1-0.3-0.1-0.4-0.2
			C71.8,148.3,71.7,146.2,71.7,144z M72.4,154c5.1,2.7,9.4,5.4,13.2,8c6.9,8.7,0.1,19.1-2.1,22C77.7,175.1,73.9,164.9,72.4,154z
			 M119.8,213.4c-4.6-1.7-9-3.9-13.1-6.5c2.8-5.3,6-12.1,8.2-19.2C117.5,193.7,119.5,202,119.8,213.4z M168.6,168
			c-1,3.4-6,6.7-32.3,1.3l0.7-22.8l32.4,19.6C169.1,166.7,168.8,167.3,168.6,168z M192.9,143.5l-23.8-4.4c-7.8-2-15.5-3.9-23.3-5.8
			c-1.8-0.5-3.7-0.9-5.6-1.4l-13.6-17.7L192.9,143.5z M122.1,112.2l8,18.9c0.6,3.4,2.9,6.3,6.3,7.5l53.9,18.2
			c-6.1,0.8-14.6,2.6-19,7l-49.5-29.9c-0.7-0.7-1.6-1.2-2.7-1.4c-1.3-0.2-2.6,0.1-3.7,0.8c-3.5,2.5-14.3,12-3.9,28.7
			c7.3,11.8-0.8,31.5-7.2,43.4c-7.4-5-13.8-11.4-19-18.6c6.3-1.9,11.1-5,14.4-9.2c9.6-12.5,5.4-20.3,2-23.8
			c-2.7-2.8-4.7-6.1-5.7-9.6c-2.6-8.5,0.3-26,14.5-37L122.1,112.2z M116.6,106.6l-4.7-2.1c0.5-6.8,0.1-15.2-1.9-25.5
			c4.2-2.3,8.7-4.3,13.4-5.8c0.2,2.6,0,5.5-0.4,8.1C121.6,91.9,119.3,100.1,116.6,106.6z M126.4,72.4c4.4-1.2,9-2,13.8-2.4
			c-1.2,2.4-2.9,4.9-4.7,7c-3.7,4.4-7.2,8.1-10.5,11.2c0.4-2.1,0.8-4.2,1.1-6.5C126.6,78.1,126.7,75,126.4,72.4z M139.4,93.6
			c2-1.9,4-4,6.1-6.4c7.1-1.9,15.5-5.3,25.3-10.9c0.8-0.5,1.5-0.9,2.3-1.4c2.1,0.8,4.2,1.8,6.2,2.8c-1.6,1.3-3.4,2.5-5.2,3.5
			C159.3,89.7,147.9,92.9,139.4,93.6z M169.5,73.7c-0.1,0-0.1,0.1-0.2,0.1c-7.6,4.3-14.3,7.3-20.2,9.2c4.1-5,6.1-9.1,6.3-12.6
			C160.3,71.1,165,72.2,169.5,73.7z M189.1,83.8c-5.9,0.8-11,1.2-15.6,1.2c0.7-0.4,1.4-0.7,2-1.1c2.7-1.5,4.8-3,6.6-4.5
			C184.5,80.7,186.8,82.2,189.1,83.8z M161.2,90.9c2.2-0.9,4.5-2,6.9-3.2c1.8,0.1,3.6,0.2,5.6,0.2c5.4,0,11.6-0.5,18.6-1.7
			c1.6,1.3,3.1,2.6,4.5,3.9c0,0,0,0-0.1,0C180.8,93.2,169.4,92.8,161.2,90.9z M152.4,70.1c0,3.5-3,8-5.9,11.4
			c-9.8,11.7-18.4,18.5-25.7,22.4c1.1-3.2,2.2-6.8,3.1-10.8c4.3-3.7,8.9-8.4,13.8-14.3c2.8-3.4,4.7-6.4,5.8-9.1
			c0.8,0,1.6-0.1,2.4-0.1C148.1,69.8,150.3,70,152.4,70.1z M138.8,217.8c-1.1-8.8-2.8-16-4.9-21.9c4.4,5.2,9.1,12,13.8,21.1
			c0.2,0.3,0.3,0.7,0.5,1c-0.8,0-1.5,0-2.3,0C143.5,218.2,141.1,218,138.8,217.8z"/>
	</g>
</g>
</svg>
