<svg xmlns="http://www.w3.org/2000/svg" id="Layer_1" x="0" y="0" version="1.1" viewBox="0 0 288 288" xml:space="preserve"><style>.st0{fill:#faf6de}.st1{fill:#f8a68c}.st2{fill:#055757}</style><path d="M175.5 83.8c-.7.4-1.4.8-2 1.1 5.1 0 11-.4 17.8-1.5-2.5-1.9-5.2-3.6-8-5.2-1.9 1.9-4.5 3.7-7.8 5.6zM149.1 83c5.9-1.9 12.6-4.9 20.2-9.2.6-.3 1.2-.7 1.9-1.1-5.1-1.8-10.4-3.1-15.8-3.7.5 3.7-1.6 8.3-6.3 14zM126.1 81.8c-.3 2.3-.7 4.4-1.1 6.5 3.3-3.1 6.8-6.8 10.5-11.2 2.1-2.6 4.3-5.7 5.4-8.5-5 .3-9.9 1.1-14.6 2.4.5 2.8.4 6.4-.2 10.8zM93.7 92.8l11.6 14.9c1.1-1.1 2.4-2.1 3.7-3.1.6-6.7.2-15.1-1.9-25.5-5.4 3.2-10.4 7.1-14.8 11.6.4.6.9 1.3 1.4 2.1zM179.7 194.2c3.9 1.6 8 3.5 12.4 5.9 1 .5 1.8 1 2.7 1.5 3.1-2.7 6.1-5.6 8.7-8.7-.5 0-1-.1-1.5-.1-8.8-.2-16.1.3-22.3 1.4zM155.5 200.6c2 2.2 4 4.6 6.1 7.3 2.5 3.2 4.3 6.1 5.3 8.7 5.2-1.5 10.2-3.5 14.8-6.1-10.3-5.4-19-8.4-26.2-9.9zM133.9 195.9c2.2 6.2 4 13.9 5.1 23.4 2.3.2 4.6.3 6.9.3 1 0 2 0 3-.1-.4-.9-.8-1.7-1.2-2.5-4.7-9-9.4-15.9-13.8-21.1zM106.1 208.3c4.3 2.7 9 5 13.8 6.7-.2-12.3-2.2-21.1-4.9-27.3-2.4 7.8-5.9 15.2-8.9 20.6z" class="st0"/><path d="M111.5 162c-10.4-16.8.4-26.2 3.9-28.7 1.1-.8 2.4-1.1 3.7-.8 1 .2 2 .7 2.7 1.4l49.5 29.9c4.4-4.3 12.9-6.2 19-7l-53.9-18.2c-3.4-1.1-5.8-4.1-6.3-7.5l-8-18.9-11.6-5.1c-14.2 11-17.1 28.5-14.5 37 1 3.5 3 6.8 5.7 9.6 3.4 3.5 7.6 11.3-2 23.8-3.5 4.6-8.9 7.9-15.9 9.7 5.3 7.7 12 14.3 19.8 19.5 6.4-11.7 15.5-32.4 7.9-44.7zm5.9-46.3c1.3.9 2.3 2.3 2.6 3.9.3 1.6 0 3.2-.9 4.6-1.2 1.7-3.1 2.7-5.1 2.7-1.2 0-2.3-.3-3.4-1-1.3-.9-2.3-2.3-2.6-3.9-.3-1.6 0-3.2.9-4.6.9-1.3 2.3-2.3 3.9-2.6 1.7-.3 3.3 0 4.6.9z" class="st0"/><path d="M168.1 87.7c-2.4 1.2-4.7 2.2-6.9 3.2 8.2 1.9 19.7 2.3 35.6-.7.6-.1 1.2-.2 1.9-.4-1.4-1.4-2.8-2.7-4.3-3.9-7.9 1.4-14.7 2-20.6 2-2 0-3.9 0-5.7-.2zM145.5 87.2c-2.1 2.3-4.1 4.4-6.1 6.4 8.5-.7 19.8-3.9 34.6-12.4 2.2-1.3 4.6-2.8 6.4-4.5-1.9-1-3.9-1.9-5.9-2.7-1.1.8-2.4 1.6-3.8 2.4-9.7 5.5-18.1 8.9-25.2 10.8zM137.8 79c-4.9 5.8-9.5 10.5-13.8 14.3-.9 4-2 7.6-3.1 10.8 7.2-3.9 15.9-10.7 25.7-22.4 3.3-4 6.8-9.3 5.7-12.9-2.1-.2-4.2-.3-6.3-.3h-1.9c-.9 2.9-3 6.4-6.3 10.5zM112 104.5l4.7 2.1c2.7-6.4 5-14.7 6.5-25.3.4-3.1.7-6.7.2-9.6-4.7 1.5-9.3 3.4-13.5 5.7 2.2 11.1 2.7 20 2.1 27.1zM92.7 132c.9-5.8 3.2-12.2 7.3-18.1-1.6-4.8-3.8-10.2-6.8-16.1-.8-1.7-1.8-3.4-2.9-5-3.3 3.6-6.3 7.5-8.9 11.7.8 1.2 1.6 2.6 2.4 4.2 4.4 9 7.2 16.7 8.9 23.3zM84.7 139.7c-.1-4.4-1.1-26-5.6-31.2-3.8 7.2-6.5 15.1-7.9 23.5 1.7.7 3.5 1.6 5.5 2.8 2.9 1.6 5.5 3.3 8 4.9zM167.1 190c2.3.6 4.8 1.3 7.4 2.2 7.2-1.7 16.3-2.7 27.7-2.3 1.3 0 2.5.1 3.6.2 1.1-1.4 2.2-2.9 3.2-4.5-2.1-.4-4.3-.6-6.4-.6-16.4-.5-27.7 1.8-35.5 5zM146.6 191.8c1.8 1.6 3.6 3.3 5.5 5.2 8.3 1.2 18.8 4.4 31.9 11.4.3.2.6.3.9.5 2.6-1.6 5.2-3.3 7.6-5.2-.6-.3-1.1-.6-1.6-.9-21.5-11.5-35.7-12.6-44.3-11zM127.8 183.4c.9 1.4 1.9 3 2.7 4.7 6.2 5.7 13 14.4 19.8 27.6.6 1.3 1.2 2.5 1.7 3.6 4.1-.3 8.2-1 12.1-1.9-1.1-2.6-2.9-5.4-4.7-7.7-12.6-15.9-23.4-23.1-31.6-26.3zM117.2 176.4c-.2 2.2-.5 4.5-1 6.8 3.6 6.8 6.7 17.2 6.7 32.9 4.2 1.4 8.6 2.3 13.1 2.9-3.2-26.9-12.5-38-18.8-42.6zM72.5 150.7c13.5 7 22.3 14 28 20.4 2.8-5.3 2.6-9.3 1.3-12.2-5.1-6.5-13.3-13.9-26.5-21.5-1.4-.8-2.9-1.6-4.4-2.3-.3 2.9-.5 5.9-.5 8.9 0 1.9.1 3.8.2 5.7.5.3 1.2.6 1.9 1zM83.2 184.3c1.9-2.4 9.5-13.2 2.3-22.3-4-2.9-8.8-5.8-14.5-8.7-.1 0-.2-.1-.3-.1 1.4 11.5 5.3 22.1 11.2 31.4.5-.1.9-.2 1.3-.3zM136.3 169.3c26.3 5.4 31.3 2.1 32.3-1.3.2-.7.5-1.3.8-1.9L137 146.5l-.7 22.8zM145.7 133.3c7.8 1.9 15.6 3.9 23.3 5.8l23.8 4.4-66.4-29.3 13.6 17.7c2 .4 3.9.9 5.7 1.4zM111.1 120.6c0 1.6 1.3 2.9 2.9 2.9 1.6 0 2.9-1.3 2.9-2.9s-1.3-2.9-2.9-2.9c-1.6 0-2.9 1.3-2.9 2.9z" class="st1"/><path d="M109 117.4c-.9 1.3-1.2 3-.9 4.6.3 1.6 1.2 3 2.6 3.9 1 .7 2.2 1 3.4 1 2 0 3.9-.9 5.1-2.7.9-1.3 1.2-3 .9-4.6-.3-1.6-1.2-3-2.6-3.9-1.3-.9-3-1.2-4.6-.9-1.6.3-3 1.2-3.9 2.6zm5 .3c1.6 0 2.9 1.3 2.9 2.9s-1.3 2.9-2.9 2.9c-1.6 0-2.9-1.3-2.9-2.9s1.3-2.9 2.9-2.9z" class="st2"/><path d="M186.2 182.6c-10.7 1.1-18.4 3.5-24.1 6.4-6.4-1.1-11.6-1-15.7-.3-15.6-6.6-26.8-23.8-26.8-44.6 0-2.6.2-5.2.5-7.7-.1-.1-.2-.3-.2-.4.2.2.3.5.4.8l13.2 33.9c.1.6.6 1 1.1 1.2.1 0 4.5 1.5 14.5 2.2 14.3 1.1 20.9-.3 22.4-5.4 2.2-7.6 19.6-9.5 26.2-9.6.7 0 1.3-.5 1.4-1.3.1-.7-.3-1.4-1-1.6l-7-2.4-11.3-9.9-1.4-.4 24.2 4c.7.2 1.5-.2 1.8-.9.3-.7-.1-1.5-.8-1.8L119.8 108l10.1 4.4c7.5-9.7 18.4-15.7 30.5-15.7 22 0 34.7 16.6 43.6 27.2l15.6-15.9C209 90.5 193.7 78.3 175 72.5c-9-3.7-18.8-5.7-29-5.7-33.7 0-62.3 21.7-72.8 51.8-3 7.9-4.6 16.4-4.6 25.2 0 9.2 1.7 18 4.8 26.2 10.7 29.7 39.2 51.1 72.6 51.1 9.3 0 18.2-1.7 26.5-4.7 19.3-5.4 34.8-17.7 47.1-36.2L204 164.3c-4.7 5.5-10.4 12.7-17.8 18.3zm16.4 2.4c1.5 0 3.1.2 4.7.4-1.1 1.6-2.2 3.1-3.4 4.6-.6 0-1.2-.1-1.8-.1-11.4-.3-20.5.6-27.7 2.3-2.6-.9-5-1.6-7.4-2.2 7.9-3.2 19.2-5.5 35.6-5zm-10.5 15.1c-4.4-2.4-8.6-4.3-12.4-5.9 6-1 13.3-1.6 21.9-1.4-2.5 2.9-5.2 5.5-8.2 8-.4-.2-.8-.4-1.3-.7zm-1.4 2.6c.1 0 .1.1.2.1-2.4 1.9-5 3.6-7.7 5.2-12.7-6.7-23-9.9-31.2-11.1-1.9-1.9-3.7-3.6-5.5-5.2 8.7-1.5 22.9-.4 44.2 11zm-24.3 12.6c-1-2.2-2.6-4.7-4.7-7.3-2.1-2.7-4.1-5.1-6.1-7.3 6.8 1.4 14.9 4.2 24.6 9.1-4.4 2.2-9 4.1-13.8 5.5zm-7.1-5.5c1.5 1.9 3 4.1 4.1 6.3-3.9 1-7.9 1.6-12.1 1.9-.3-.7-.7-1.4-1.1-2.2-6.8-13.2-13.6-21.9-19.8-27.6-.9-1.7-1.8-3.3-2.7-4.7 8.3 3.1 19.1 10.3 31.6 26.3zm-23.5 7.7c-4.5-.6-8.8-1.6-13-3-.2-14.8-3.2-24.7-6.7-31.3.5-2.3.9-4.5 1-6.8 6.2 4.5 15.3 15.3 18.7 41.1zM91 94.1c.8 1.2 1.5 2.5 2.1 3.7 3 5.9 5.2 11.3 6.8 16.1-4.1 5.9-6.4 12.3-7.3 18.1-1.7-6.6-4.5-14.4-9-23.3-.5-1-1-1.9-1.5-2.7 2.7-4.2 5.6-8.2 8.9-11.9zm16.4-13.5c1.8 9.7 2.1 17.6 1.6 23.9-1.3 1-2.5 2-3.7 3.1L93.7 92.8c-.2-.3-.4-.6-.5-.9 4.2-4.3 9-8.1 14.2-11.3zm-22.7 59.1c-2.4-1.6-5.1-3.3-8-4.9-1.4-.8-2.8-1.5-4.1-2.1 1.2-8.1 3.8-15.7 7.4-22.7 3.7 6.9 4.5 25.7 4.7 29.7zm-13 4.3c0-2.8.2-5.5.5-8.3 1 .5 2.1 1 3 1.6 13.2 7.6 21.4 15 26.5 21.5 1.3 2.9 1.6 6.9-1.3 12.2-5.7-6.4-14.4-13.4-28-20.4-.2-.1-.3-.1-.4-.2-.2-2.1-.3-4.2-.3-6.4zm.7 10c5.1 2.7 9.4 5.4 13.2 8 6.9 8.7.1 19.1-2.1 22-5.8-8.9-9.6-19.1-11.1-30zm47.4 59.4c-4.6-1.7-9-3.9-13.1-6.5 2.8-5.3 6-12.1 8.2-19.2 2.6 6 4.6 14.3 4.9 25.7zm48.8-45.4c-1 3.4-6 6.7-32.3 1.3l.7-22.8 32.4 19.6c-.3.6-.6 1.2-.8 1.9zm24.3-24.5l-23.8-4.4c-7.8-2-15.5-3.9-23.3-5.8-1.8-.5-3.7-.9-5.6-1.4l-13.6-17.7 66.3 29.3zm-70.8-31.3l8 18.9c.6 3.4 2.9 6.3 6.3 7.5l53.9 18.2c-6.1.8-14.6 2.6-19 7l-49.5-29.9c-.7-.7-1.6-1.2-2.7-1.4-1.3-.2-2.6.1-3.7.8-3.5 2.5-14.3 12-3.9 28.7 7.3 11.8-.8 31.5-7.2 43.4-7.4-5-13.8-11.4-19-18.6 6.3-1.9 11.1-5 14.4-9.2 9.6-12.5 5.4-20.3 2-23.8-2.7-2.8-4.7-6.1-5.7-9.6-2.6-8.5.3-26 14.5-37l11.6 5zm-5.5-5.6l-4.7-2.1c.5-6.8.1-15.2-1.9-25.5 4.2-2.3 8.7-4.3 13.4-5.8.2 2.6 0 5.5-.4 8.1-1.4 10.6-3.7 18.8-6.4 25.3zm9.8-34.2c4.4-1.2 9-2 13.8-2.4-1.2 2.4-2.9 4.9-4.7 7-3.7 4.4-7.2 8.1-10.5 11.2.4-2.1.8-4.2 1.1-6.5.5-3.6.6-6.7.3-9.3zm13 21.2c2-1.9 4-4 6.1-6.4 7.1-1.9 15.5-5.3 25.3-10.9.8-.5 1.5-.9 2.3-1.4 2.1.8 4.2 1.8 6.2 2.8-1.6 1.3-3.4 2.5-5.2 3.5-14.8 8.5-26.2 11.7-34.7 12.4zm30.1-19.9c-.1 0-.1.1-.2.1-7.6 4.3-14.3 7.3-20.2 9.2 4.1-5 6.1-9.1 6.3-12.6 4.9.7 9.6 1.8 14.1 3.3zm19.6 10.1c-5.9.8-11 1.2-15.6 1.2.7-.4 1.4-.7 2-1.1 2.7-1.5 4.8-3 6.6-4.5 2.4 1.3 4.7 2.8 7 4.4zm-27.9 7.1c2.2-.9 4.5-2 6.9-3.2 1.8.1 3.6.2 5.6.2 5.4 0 11.6-.5 18.6-1.7 1.6 1.3 3.1 2.6 4.5 3.9h-.1c-15.9 3.1-27.3 2.7-35.5.8zm-8.8-20.8c0 3.5-3 8-5.9 11.4-9.8 11.7-18.4 18.5-25.7 22.4 1.1-3.2 2.2-6.8 3.1-10.8 4.3-3.7 8.9-8.4 13.8-14.3 2.8-3.4 4.7-6.4 5.8-9.1.8 0 1.6-.1 2.4-.1 2.2.2 4.4.4 6.5.5zm-13.6 147.7c-1.1-8.8-2.8-16-4.9-21.9 4.4 5.2 9.1 12 13.8 21.1.2.3.3.7.5 1h-2.3c-2.4.2-4.8 0-7.1-.2z" class="st2"/></svg>